<?xml version="1.0" encoding="iso-8859-1"?>
<!-- Generator: Adobe Illustrator 19.0.0, SVG Export Plug-In . SVG Version: 6.00 Build 0)  -->
<svg version="1.1" id="Layer_1" xmlns="http://www.w3.org/2000/svg" xmlns:xlink="http://www.w3.org/1999/xlink" x="0px" y="0px"
	 viewBox="0 0 508 508" style="enable-background:new 0 0 508 508;" xml:space="preserve">
<circle style="fill:#324A5E;" cx="254" cy="254" r="254"/>
<polygon style="fill:#84DBFF;" points="301.2,166.4 301.2,404.4 418.4,347.2 418.4,109.6 "/>
<path style="fill:#FFFFFF;" d="M301.2,187.2v6L316,186v70l-14.8,7.2v6l20.8-10v-76l70-34v70l-34.8,17.2v5.6l34.8-17.2v32.4l-90.8,44
	v6L316,300v70l-14.8,7.2v6L398,336V140L301.2,187.2z M391.6,333.2L322,367.6v-70l70-34v69.6H391.6z"/>
<polygon style="fill:#84DBFF;" points="199.6,103.6 89.6,166.4 89.6,404.4 199.6,341.6 "/>
<polygon style="fill:#FFFFFF;" points="199.6,314.8 182.8,324.4 182.8,280.8 176.8,284 176.8,327.6 116.4,362.4 116.4,273.2 
	176.8,238.4 176.8,248.8 182.8,245.6 182.8,218.8 176.8,222.4 176.8,232.4 116.4,267.2 116.4,178 176.8,143.6 176.8,187.2 
	182.8,183.6 182.8,140 199.6,130.4 199.6,124.4 110.4,175.6 110.4,371.6 199.6,320.8 "/>
<polygon style="fill:#54C0EB;" points="198.8,103.6 198.8,341.6 301.2,404.4 301.2,166.4 "/>
<g>
	<polygon style="fill:#E6E9EE;" points="240.8,340.4 198.8,314.8 198.8,320.8 301.2,383.6 301.2,377.6 246.8,344 246.8,274 
		301.2,307.6 301.2,301.6 240.8,264.4 	"/>
	<polygon style="fill:#E6E9EE;" points="301.2,193.2 301.2,187.2 198.8,124.4 198.8,130.4 222.8,145.2 222.8,221.2 301.2,269.2 
		301.2,263.2 228.4,218.8 228.4,148.8 	"/>
</g>
<g>
</g>
<g>
</g>
<g>
</g>
<g>
</g>
<g>
</g>
<g>
</g>
<g>
</g>
<g>
</g>
<g>
</g>
<g>
</g>
<g>
</g>
<g>
</g>
<g>
</g>
<g>
</g>
<g>
</g>
</svg>
