<?xml version="1.0" encoding="iso-8859-1"?>
<!-- Generator: Adobe Illustrator 19.0.0, SVG Export Plug-In . SVG Version: 6.00 Build 0)  -->
<svg version="1.1" id="Layer_1" xmlns="http://www.w3.org/2000/svg" xmlns:xlink="http://www.w3.org/1999/xlink" x="0px" y="0px"
	 viewBox="0 0 512 512" style="enable-background:new 0 0 512 512;" xml:space="preserve">
<polygon style="fill:#7AB9E8;" points="503.172,55.908 503.172,409.012 338.391,456.092 173.609,409.012 8.828,456.092 
	8.828,102.989 173.609,55.908 338.391,102.989 "/>
<polygon style="fill:#61AAE4;" points="173.609,55.908 173.609,409.012 338.391,456.092 338.391,102.989 "/>
<g>
	<path style="fill:#F8F8F9;" d="M449.638,136.296c-2.212-1.669-5.079-2.207-7.741-1.441l-103.506,29.574l-162.356-46.387
		c-1.585-0.453-3.265-0.453-4.85,0L65.254,148.307c-3.79,1.084-6.402,4.547-6.402,8.489v152.802v0.005v59.055
		c0,2.771,1.299,5.379,3.511,7.047s5.076,2.205,7.741,1.441l103.505-29.574l162.356,46.387c0.792,0.226,1.609,0.34,2.426,0.34
		c0.816,0,1.633-0.114,2.425-0.34l105.931-30.266c3.79-1.084,6.403-4.547,6.403-8.489V143.342
		C453.149,140.573,451.849,137.963,449.638,136.296z M338.391,376.291l-162.356-46.387c-0.792-0.226-1.609-0.34-2.426-0.34
		c-0.816,0-1.633,0.114-2.426,0.34l-94.678,27.051v-40.489l10.573-3.02c4.688-1.338,7.402-6.225,6.063-10.912
		c-1.339-4.688-6.229-7.405-10.913-6.062l-5.723,1.631v-69.474c20.122-4.1,35.31-21.935,35.31-43.249
		c0-4.876-3.952-8.828-8.828-8.828c-4.875,0-8.828,3.951-8.828,8.828c0,11.508-7.381,21.319-17.655,24.964v-46.89l97.103-27.745
		l73.563,21.017v11c0,4.876,3.952,8.828,8.828,8.828s8.828-3.951,8.828-8.828v-5.956l71.137,20.326c1.585,0.453,3.265,0.453,4.85,0
		l94.679-27.05v47.601c-3.205,2.046-4.834,6.018-3.736,9.862c0.614,2.15,1.989,3.863,3.736,4.982v65.88
		c-20.122,4.1-35.31,21.935-35.31,43.249c0,4.876,3.952,8.828,8.828,8.828c4.875,0,8.828-3.951,8.828-8.828
		c0-11.508,7.38-21.319,17.655-24.964v46.89L338.391,376.291z"/>
	<path style="fill:#F8F8F9;" d="M352.941,225.848l-16.976,4.85c-4.688,1.339-7.402,6.225-6.063,10.912
		c1.108,3.877,4.642,6.404,8.483,6.404c0.803,0,1.62-0.111,2.429-0.343l16.976-4.85c4.688-1.338,7.402-6.225,6.063-10.912
		C362.515,227.223,357.627,224.501,352.941,225.848z"/>
	<path style="fill:#F8F8F9;" d="M414.782,217.36c-1.339-4.687-6.228-7.406-10.913-6.062l-16.976,4.85
		c-4.688,1.339-7.402,6.225-6.063,10.912c1.108,3.877,4.642,6.404,8.483,6.404c0.803,0,1.62-0.111,2.431-0.343l16.976-4.85
		C413.408,226.934,416.122,222.047,414.782,217.36z"/>
	<path style="fill:#F8F8F9;" d="M171.185,271.052l-4.076,1.164c-4.688,1.341-7.402,6.225-6.063,10.914
		c1.108,3.877,4.641,6.404,8.483,6.404c0.803,0,1.62-0.111,2.429-0.341l4.076-1.164c4.688-1.341,7.402-6.225,6.063-10.913
		C180.758,272.428,175.869,269.712,171.185,271.052z"/>
	<path style="fill:#F8F8F9;" d="M133.156,281.918l-16.976,4.85c-4.688,1.339-7.402,6.225-6.063,10.912
		c1.108,3.877,4.642,6.404,8.483,6.404c0.803,0,1.62-0.111,2.429-0.342l16.976-4.85c4.688-1.339,7.402-6.225,6.063-10.912
		C142.73,283.294,137.845,280.572,133.156,281.918z"/>
	<path style="fill:#F8F8F9;" d="M281.965,306.363l-47.08-13.453c-4.682-1.343-9.573,1.374-10.913,6.062
		c-1.339,4.687,1.375,9.574,6.063,10.913l47.08,13.453c0.81,0.232,1.627,0.342,2.429,0.342c3.841,0,7.375-2.528,8.484-6.405
		C289.368,312.588,286.653,307.703,281.965,306.363z"/>
	<path style="fill:#F8F8F9;" d="M256,229.52c4.875,0,8.828-3.951,8.828-8.828v-17.655c0-4.876-3.952-8.828-8.828-8.828
		s-8.828,3.951-8.828,8.828v17.655C247.172,225.568,251.125,229.52,256,229.52z"/>
	<path style="fill:#F8F8F9;" d="M256,282.485c4.875,0,8.828-3.951,8.828-8.828v-17.655c0-4.876-3.952-8.828-8.828-8.828
		s-8.828,3.951-8.828,8.828v17.655C247.172,278.534,251.125,282.485,256,282.485z"/>
</g>
<g>
	<path style="fill:#EDEDED;" d="M176.035,329.903c-0.792-0.226-1.609-0.34-2.426-0.34v18.008l162.356,46.387
		c0.792,0.226,1.609,0.34,2.426,0.34v-18.008L176.035,329.903z"/>
	<path style="fill:#EDEDED;" d="M247.172,156.726v11c0,4.876,3.952,8.828,8.828,8.828s8.828-3.951,8.828-8.828v-5.956l71.137,20.326
		c0.792,0.226,1.609,0.34,2.426,0.34v-18.008l-162.356-46.387c-0.792-0.226-1.609-0.34-2.426-0.34v18.008L247.172,156.726z"/>
	<path style="fill:#EDEDED;" d="M335.965,230.699c-4.688,1.339-7.402,6.225-6.063,10.912c1.108,3.877,4.642,6.404,8.483,6.404
		c0.001,0,0.002,0,0.005,0v-18.009L335.965,230.699z"/>
	<path style="fill:#EDEDED;" d="M176.034,288.029c4.688-1.341,7.402-6.225,6.063-10.913c-1.108-3.878-4.646-6.398-8.487-6.398
		v18.005L176.034,288.029z"/>
	<path style="fill:#EDEDED;" d="M281.965,306.363l-47.08-13.453c-4.682-1.343-9.573,1.374-10.913,6.062
		c-1.339,4.687,1.375,9.574,6.063,10.913l47.08,13.453c0.81,0.232,1.627,0.342,2.429,0.342c3.841,0,7.375-2.528,8.484-6.405
		C289.368,312.588,286.653,307.703,281.965,306.363z"/>
	<path style="fill:#EDEDED;" d="M256,229.52c4.875,0,8.828-3.951,8.828-8.828v-17.655c0-4.876-3.952-8.828-8.828-8.828
		s-8.828,3.951-8.828,8.828v17.655C247.172,225.568,251.125,229.52,256,229.52z"/>
	<path style="fill:#EDEDED;" d="M256,282.485c4.875,0,8.828-3.951,8.828-8.828v-17.655c0-4.876-3.952-8.828-8.828-8.828
		s-8.828,3.951-8.828,8.828v17.655C247.172,278.534,251.125,282.485,256,282.485z"/>
</g>
<path style="fill:#2E2D31;" d="M508.489,48.861c-2.213-1.67-5.078-2.201-7.741-1.442L338.391,93.808L176.035,47.419
	c-1.585-0.453-3.265-0.453-4.85,0L6.403,94.5C2.613,95.584,0,99.047,0,102.989v353.103c0,2.77,1.301,5.379,3.511,7.047
	c1.55,1.169,3.42,1.781,5.318,1.781c0.811,0,1.627-0.112,2.425-0.339l162.356-46.388l162.356,46.388c1.585,0.453,3.265,0.453,4.85,0
	l164.782-47.08c3.79-1.084,6.403-4.547,6.403-8.489V55.908C512,53.137,510.699,50.529,508.489,48.861z M182.437,67.611
	l147.126,42.037v334.74l-147.126-42.037V67.611z M17.655,109.647l147.126-42.036v334.74L17.655,444.389V109.647z M494.345,402.353
	l-147.126,42.036V109.648l147.126-42.037V402.353z"/>
<g>
</g>
<g>
</g>
<g>
</g>
<g>
</g>
<g>
</g>
<g>
</g>
<g>
</g>
<g>
</g>
<g>
</g>
<g>
</g>
<g>
</g>
<g>
</g>
<g>
</g>
<g>
</g>
<g>
</g>
</svg>
